<?xml version="1.0" encoding="UTF-8" standalone="no"?>
<!DOCTYPE svg PUBLIC "-//W3C//DTD SVG 1.1//EN" "http://www.w3.org/Graphics/SVG/1.1/DTD/svg11.dtd">
<svg xmlns="http://www.w3.org/2000/svg" version="1.1" viewBox="0.00 0.00 500.00 500.00">
<g stroke-width="2.00" fill="none" stroke-linecap="butt">
<path stroke="#808080" vector-effect="non-scaling-stroke" d="
  M 248.25 269.00
  A 0.52 0.51 -13.0 0 1 247.79 268.72
  L 243.06 259.76
  Q 242.81 259.28 242.26 259.28
  L 236.46 259.29
  Q 235.96 259.29 235.96 259.79
  L 235.97 268.76
  Q 235.97 268.99 235.74 268.99
  L 227.48 269.00
  A 0.28 0.27 -0.0 0 1 227.20 268.73
  L 227.21 250.74
  Q 227.21 250.06 226.87 250.64
  Q 222.50 257.94 218.22 265.31
  C 215.86 269.38 214.86 272.41 217.72 276.25
  Q 219.76 279.00 222.25 279.00
  Q 288.34 278.99 354.45 279.01
  C 361.60 279.01 366.32 277.64 371.42 273.26
  Q 374.58 270.56 379.26 262.63
  Q 387.77 248.19 396.32 233.79
  Q 399.83 227.87 395.58 223.11
  C 394.63 222.05 392.82 221.00 391.50 221.00
  Q 325.58 221.00 259.65 220.99
  Q 253.50 220.99 250.02 222.29
  Q 241.40 225.49 236.52 234.15
  Q 236.23 234.68 236.83 234.64
  C 245.82 234.06 256.31 234.67 256.77 246.49
  Q 257.05 253.73 251.20 257.43
  Q 250.69 257.75 251.01 258.25
  L 257.69 268.71
  A 0.18 0.18 0.0 0 1 257.54 268.99
  L 248.25 269.00"
/>
<path stroke="#808080" vector-effect="non-scaling-stroke" d="
  M 106.27 241.63
  A 0.35 0.35 0.0 0 1 106.62 241.98
  L 106.62 268.65
  A 0.35 0.35 0.0 0 0 106.97 269.00
  L 115.02 269.00
  A 0.35 0.35 0.0 0 0 115.37 268.65
  L 115.38 241.99
  A 0.35 0.35 0.0 0 1 115.73 241.64
  L 125.39 241.63
  A 0.35 0.35 0.0 0 0 125.74 241.28
  L 125.74 234.87
  A 0.35 0.35 0.0 0 0 125.39 234.52
  L 96.67 234.52
  A 0.35 0.35 0.0 0 0 96.32 234.87
  L 96.32 241.28
  A 0.35 0.35 0.0 0 0 96.67 241.63
  L 106.27 241.63"
/>
<path stroke="#808080" vector-effect="non-scaling-stroke" d="
  M 194.74 246.82
  L 194.70 248.73
  Q 194.68 249.27 195.23 249.27
  L 197.94 249.26
  Q 198.40 249.26 198.39 249.72
  Q 198.33 255.29 198.28 260.86
  C 198.21 269.47 207.41 271.01 213.64 267.91
  Q 214.25 267.61 214.07 266.96
  L 212.76 262.29
  Q 212.57 261.61 211.93 261.90
  C 209.14 263.21 206.93 262.87 206.85 259.34
  Q 206.74 254.56 206.83 249.69
  Q 206.84 249.27 207.27 249.27
  L 213.49 249.26
  A 0.25 0.25 0.0 0 0 213.74 249.01
  L 213.75 243.98
  A 0.27 0.27 0.0 0 0 213.48 243.71
  L 207.26 243.71
  Q 206.80 243.71 206.80 243.26
  L 206.81 236.69
  A 0.37 0.36 0.0 0 0 206.44 236.33
  L 198.64 236.35
  A 0.27 0.27 0.0 0 0 198.37 236.62
  L 198.37 243.19
  Q 198.37 243.75 197.81 243.75
  L 195.18 243.73
  Q 194.82 243.72 194.75 244.07
  L 194.67 244.41
  Q 194.55 244.94 194.08 244.68
  Q 187.87 241.24 180.75 242.47
  C 172.25 243.94 170.22 254.61 179.03 257.66
  Q 181.94 258.67 184.86 259.64
  Q 186.24 260.10 186.75 260.88
  A 1.64 1.64 0.0 0 1 185.48 263.40
  Q 179.86 263.79 175.29 260.52
  Q 174.77 260.14 174.48 260.72
  L 172.31 265.04
  Q 172.03 265.59 172.55 265.95
  C 177.54 269.39 186.71 271.03 192.03 267.05
  C 196.69 263.57 195.89 255.97 190.25 254.02
  Q 186.50 252.74 182.76 251.49
  Q 180.97 250.89 181.28 249.39
  A 1.71 1.71 0.0 0 1 182.88 248.01
  C 186.22 247.85 188.62 249.04 191.60 250.31
  Q 192.17 250.55 192.45 250.01
  L 194.21 246.68
  A 0.28 0.28 0.0 0 1 194.74 246.82"
/>
<path stroke="#808080" vector-effect="non-scaling-stroke" d="
  M 235.95 241.81
  L 235.97 252.13
  A 0.32 0.32 0.0 0 0 236.29 252.45
  L 243.29 252.44
  A 5.26 5.03 -0.1 0 0 248.54 247.40
  L 248.54 246.50
  A 5.26 5.03 -0.1 0 0 243.27 241.48
  L 236.27 241.49
  A 0.32 0.32 0.0 0 0 235.95 241.81"
/>
<path stroke="#808080" vector-effect="non-scaling-stroke" d="
  M 162.24 265.50
  L 162.19 268.21
  Q 162.18 269.00 162.96 269.00
  L 169.74 269.00
  Q 170.73 269.00 170.73 268.01
  L 170.73 242.74
  A 0.24 0.24 0.0 0 0 170.49 242.50
  L 162.50 242.50
  A 0.30 0.29 -0.0 0 0 162.20 242.79
  Q 162.24 249.15 162.16 255.99
  C 162.07 263.18 152.58 263.92 152.61 257.24
  Q 152.64 250.17 152.59 243.01
  A 0.54 0.54 0.0 0 0 152.04 242.48
  Q 148.10 242.58 144.15 242.40
  C 140.23 242.22 137.88 243.15 135.67 246.17
  Q 135.13 246.91 135.14 245.99
  L 135.17 243.46
  Q 135.18 242.50 134.21 242.50
  L 127.70 242.50
  Q 126.66 242.50 126.66 243.55
  L 126.65 268.70
  Q 126.65 269.00 126.95 269.00
  L 134.94 268.99
  Q 135.17 268.99 135.17 268.76
  Q 135.14 263.58 135.16 258.10
  C 135.17 252.12 136.97 250.21 142.72 249.57
  Q 143.62 249.47 143.62 248.57
  L 143.65 243.23
  Q 143.65 243.17 143.71 243.17
  L 143.97 243.19
  Q 144.17 243.21 144.16 243.40
  Q 143.96 256.04 144.15 259.99
  C 144.64 269.85 156.08 272.57 161.79 265.33
  Q 162.25 264.75 162.24 265.50"
/>
<path stroke="#808080" vector-effect="non-scaling-stroke" d="
  M 326.19 251.24
  A 0.30 0.30 0.0 0 1 325.67 251.03
  L 325.66 232.81
  A 0.30 0.30 0.0 0 0 325.36 232.51
  L 317.45 232.51
  A 0.30 0.30 0.0 0 0 317.15 232.81
  L 317.14 268.70
  A 0.30 0.30 0.0 0 0 317.44 269.00
  L 325.36 268.99
  A 0.30 0.30 0.0 0 0 325.66 268.69
  L 325.66 261.83
  A 0.30 0.30 0.0 0 1 325.75 261.62
  L 328.24 259.10
  A 0.30 0.30 0.0 0 1 328.71 259.17
  L 334.15 268.85
  A 0.30 0.30 0.0 0 0 334.42 269.00
  L 343.78 268.99
  A 0.30 0.30 0.0 0 0 344.04 268.53
  L 334.41 252.88
  A 0.30 0.30 0.0 0 1 334.45 252.51
  L 343.54 243.01
  A 0.30 0.30 0.0 0 0 343.33 242.50
  L 334.50 242.50
  A 0.30 0.30 0.0 0 0 334.28 242.59
  L 326.19 251.24"
/>
<path stroke="#808080" vector-effect="non-scaling-stroke" d="
  M 275.03 266.78
  L 275.01 268.25
  Q 275.01 269.00 275.75 269.00
  L 282.71 269.00
  Q 283.33 269.00 283.33 268.38
  Q 283.38 260.98 283.27 253.18
  Q 283.21 248.70 281.97 246.62
  C 277.86 239.74 265.63 242.07 259.74 245.13
  Q 259.53 245.24 259.62 245.45
  L 261.80 250.48
  Q 261.93 250.77 262.22 250.62
  C 265.22 248.98 274.85 246.09 274.95 252.55
  Q 274.96 253.07 274.44 253.07
  C 268.36 252.96 259.17 252.03 258.01 259.91
  C 256.55 269.93 268.74 271.56 274.58 266.58
  Q 275.03 266.19 275.03 266.78"
/>
<path stroke="#808080" vector-effect="non-scaling-stroke" d="
  M 295.14 245.72
  L 295.20 243.37
  Q 295.23 242.50 294.36 242.50
  L 287.58 242.50
  Q 286.66 242.50 286.66 243.42
  L 286.65 268.70
  Q 286.65 269.00 286.95 269.00
  L 294.93 268.99
  Q 295.17 268.99 295.17 268.75
  Q 295.13 262.23 295.29 255.26
  Q 295.40 250.42 299.49 249.69
  C 304.40 248.81 305.24 252.70 305.24 256.70
  Q 305.23 262.82 305.22 268.53
  Q 305.22 269.00 305.70 269.00
  L 313.26 269.00
  Q 313.68 269.00 313.69 268.57
  Q 313.75 260.43 313.61 251.76
  C 313.45 242.36 303.24 239.35 296.71 244.82
  Q 296.34 245.13 296.14 245.56
  Q 295.98 245.88 295.72 246.05
  Q 295.12 246.43 295.14 245.72"
/>
<path stroke="#808080" vector-effect="non-scaling-stroke" d="
  M 351.85 265.28
  A 4.13 4.13 0.0 0 0 347.72 261.15
  A 4.13 4.13 0.0 0 0 343.59 265.28
  A 4.13 4.13 0.0 0 0 347.72 269.41
  A 4.13 4.13 0.0 0 0 351.85 265.28"
/>
<path stroke="#808080" vector-effect="non-scaling-stroke" d="
  M 265.83 260.92
  C 266.61 265.62 275.68 264.00 274.97 258.20
  Q 274.91 257.70 274.41 257.68
  C 272.18 257.58 265.13 256.75 265.83 260.92"
/>
</g>
<path fill="#ffffff" d="
  M 0.00 0.00
  L 500.00 0.00
  L 500.00 500.00
  L 0.00 500.00
  L 0.00 0.00
  Z
  M 248.25 269.00
  A 0.52 0.51 -13.0 0 1 247.79 268.72
  L 243.06 259.76
  Q 242.81 259.28 242.26 259.28
  L 236.46 259.29
  Q 235.96 259.29 235.96 259.79
  L 235.97 268.76
  Q 235.97 268.99 235.74 268.99
  L 227.48 269.00
  A 0.28 0.27 -0.0 0 1 227.20 268.73
  L 227.21 250.74
  Q 227.21 250.06 226.87 250.64
  Q 222.50 257.94 218.22 265.31
  C 215.86 269.38 214.86 272.41 217.72 276.25
  Q 219.76 279.00 222.25 279.00
  Q 288.34 278.99 354.45 279.01
  C 361.60 279.01 366.32 277.64 371.42 273.26
  Q 374.58 270.56 379.26 262.63
  Q 387.77 248.19 396.32 233.79
  Q 399.83 227.87 395.58 223.11
  C 394.63 222.05 392.82 221.00 391.50 221.00
  Q 325.58 221.00 259.65 220.99
  Q 253.50 220.99 250.02 222.29
  Q 241.40 225.49 236.52 234.15
  Q 236.23 234.68 236.83 234.64
  C 245.82 234.06 256.31 234.67 256.77 246.49
  Q 257.05 253.73 251.20 257.43
  Q 250.69 257.75 251.01 258.25
  L 257.69 268.71
  A 0.18 0.18 0.0 0 1 257.54 268.99
  L 248.25 269.00
  Z
  M 106.27 241.63
  A 0.35 0.35 0.0 0 1 106.62 241.98
  L 106.62 268.65
  A 0.35 0.35 0.0 0 0 106.97 269.00
  L 115.02 269.00
  A 0.35 0.35 0.0 0 0 115.37 268.65
  L 115.38 241.99
  A 0.35 0.35 0.0 0 1 115.73 241.64
  L 125.39 241.63
  A 0.35 0.35 0.0 0 0 125.74 241.28
  L 125.74 234.87
  A 0.35 0.35 0.0 0 0 125.39 234.52
  L 96.67 234.52
  A 0.35 0.35 0.0 0 0 96.32 234.87
  L 96.32 241.28
  A 0.35 0.35 0.0 0 0 96.67 241.63
  L 106.27 241.63
  Z
  M 194.74 246.82
  L 194.70 248.73
  Q 194.68 249.27 195.23 249.27
  L 197.94 249.26
  Q 198.40 249.26 198.39 249.72
  Q 198.33 255.29 198.28 260.86
  C 198.21 269.47 207.41 271.01 213.64 267.91
  Q 214.25 267.61 214.07 266.96
  L 212.76 262.29
  Q 212.57 261.61 211.93 261.90
  C 209.14 263.21 206.93 262.87 206.85 259.34
  Q 206.74 254.56 206.83 249.69
  Q 206.84 249.27 207.27 249.27
  L 213.49 249.26
  A 0.25 0.25 0.0 0 0 213.74 249.01
  L 213.75 243.98
  A 0.27 0.27 0.0 0 0 213.48 243.71
  L 207.26 243.71
  Q 206.80 243.71 206.80 243.26
  L 206.81 236.69
  A 0.37 0.36 0.0 0 0 206.44 236.33
  L 198.64 236.35
  A 0.27 0.27 0.0 0 0 198.37 236.62
  L 198.37 243.19
  Q 198.37 243.75 197.81 243.75
  L 195.18 243.73
  Q 194.82 243.72 194.75 244.07
  L 194.67 244.41
  Q 194.55 244.94 194.08 244.68
  Q 187.87 241.24 180.75 242.47
  C 172.25 243.94 170.22 254.61 179.03 257.66
  Q 181.94 258.67 184.86 259.64
  Q 186.24 260.10 186.75 260.88
  A 1.64 1.64 0.0 0 1 185.48 263.40
  Q 179.86 263.79 175.29 260.52
  Q 174.77 260.14 174.48 260.72
  L 172.31 265.04
  Q 172.03 265.59 172.55 265.95
  C 177.54 269.39 186.71 271.03 192.03 267.05
  C 196.69 263.57 195.89 255.97 190.25 254.02
  Q 186.50 252.74 182.76 251.49
  Q 180.97 250.89 181.28 249.39
  A 1.71 1.71 0.0 0 1 182.88 248.01
  C 186.22 247.85 188.62 249.04 191.60 250.31
  Q 192.17 250.55 192.45 250.01
  L 194.21 246.68
  A 0.28 0.28 0.0 0 1 194.74 246.82
  Z
  M 235.95 241.81
  L 235.97 252.13
  A 0.32 0.32 0.0 0 0 236.29 252.45
  L 243.29 252.44
  A 5.26 5.03 -0.1 0 0 248.54 247.40
  L 248.54 246.50
  A 5.26 5.03 -0.1 0 0 243.27 241.48
  L 236.27 241.49
  A 0.32 0.32 0.0 0 0 235.95 241.81
  Z
  M 162.24 265.50
  L 162.19 268.21
  Q 162.18 269.00 162.96 269.00
  L 169.74 269.00
  Q 170.73 269.00 170.73 268.01
  L 170.73 242.74
  A 0.24 0.24 0.0 0 0 170.49 242.50
  L 162.50 242.50
  A 0.30 0.29 -0.0 0 0 162.20 242.79
  Q 162.24 249.15 162.16 255.99
  C 162.07 263.18 152.58 263.92 152.61 257.24
  Q 152.64 250.17 152.59 243.01
  A 0.54 0.54 0.0 0 0 152.04 242.48
  Q 148.10 242.58 144.15 242.40
  C 140.23 242.22 137.88 243.15 135.67 246.17
  Q 135.13 246.91 135.14 245.99
  L 135.17 243.46
  Q 135.18 242.50 134.21 242.50
  L 127.70 242.50
  Q 126.66 242.50 126.66 243.55
  L 126.65 268.70
  Q 126.65 269.00 126.95 269.00
  L 134.94 268.99
  Q 135.17 268.99 135.17 268.76
  Q 135.14 263.58 135.16 258.10
  C 135.17 252.12 136.97 250.21 142.72 249.57
  Q 143.62 249.47 143.62 248.57
  L 143.65 243.23
  Q 143.65 243.17 143.71 243.17
  L 143.97 243.19
  Q 144.17 243.21 144.16 243.40
  Q 143.96 256.04 144.15 259.99
  C 144.64 269.85 156.08 272.57 161.79 265.33
  Q 162.25 264.75 162.24 265.50
  Z"
/>
<path fill="#000000" d="
  M 257.69 268.71
  L 251.01 258.25
  Q 250.69 257.75 251.20 257.43
  Q 257.05 253.73 256.77 246.49
  C 256.31 234.67 245.82 234.06 236.83 234.64
  Q 236.23 234.68 236.52 234.15
  Q 241.40 225.49 250.02 222.29
  Q 253.50 220.99 259.65 220.99
  Q 325.58 221.00 391.50 221.00
  C 392.82 221.00 394.63 222.05 395.58 223.11
  Q 399.83 227.87 396.32 233.79
  Q 387.77 248.19 379.26 262.63
  Q 374.58 270.56 371.42 273.26
  C 366.32 277.64 361.60 279.01 354.45 279.01
  Q 288.34 278.99 222.25 279.00
  Q 219.76 279.00 217.72 276.25
  C 214.86 272.41 215.86 269.38 218.22 265.31
  Q 222.50 257.94 226.87 250.64
  Q 227.21 250.06 227.21 250.74
  L 227.20 268.73
  A 0.28 0.27 0.0 0 0 227.48 269.00
  L 235.74 268.99
  Q 235.97 268.99 235.97 268.76
  L 235.96 259.79
  Q 235.96 259.29 236.46 259.29
  L 242.26 259.28
  Q 242.81 259.28 243.06 259.76
  L 247.79 268.72
  A 0.52 0.51 -13.0 0 0 248.25 269.00
  L 257.54 268.99
  A 0.18 0.18 0.0 0 0 257.69 268.71
  Z
  M 326.19 251.24
  A 0.30 0.30 0.0 0 1 325.67 251.03
  L 325.66 232.81
  A 0.30 0.30 0.0 0 0 325.36 232.51
  L 317.45 232.51
  A 0.30 0.30 0.0 0 0 317.15 232.81
  L 317.14 268.70
  A 0.30 0.30 0.0 0 0 317.44 269.00
  L 325.36 268.99
  A 0.30 0.30 0.0 0 0 325.66 268.69
  L 325.66 261.83
  A 0.30 0.30 0.0 0 1 325.75 261.62
  L 328.24 259.10
  A 0.30 0.30 0.0 0 1 328.71 259.17
  L 334.15 268.85
  A 0.30 0.30 0.0 0 0 334.42 269.00
  L 343.78 268.99
  A 0.30 0.30 0.0 0 0 344.04 268.53
  L 334.41 252.88
  A 0.30 0.30 0.0 0 1 334.45 252.51
  L 343.54 243.01
  A 0.30 0.30 0.0 0 0 343.33 242.50
  L 334.50 242.50
  A 0.30 0.30 0.0 0 0 334.28 242.59
  L 326.19 251.24
  Z
  M 275.03 266.78
  L 275.01 268.25
  Q 275.01 269.00 275.75 269.00
  L 282.71 269.00
  Q 283.33 269.00 283.33 268.38
  Q 283.38 260.98 283.27 253.18
  Q 283.21 248.70 281.97 246.62
  C 277.86 239.74 265.63 242.07 259.74 245.13
  Q 259.53 245.24 259.62 245.45
  L 261.80 250.48
  Q 261.93 250.77 262.22 250.62
  C 265.22 248.98 274.85 246.09 274.95 252.55
  Q 274.96 253.07 274.44 253.07
  C 268.36 252.96 259.17 252.03 258.01 259.91
  C 256.55 269.93 268.74 271.56 274.58 266.58
  Q 275.03 266.19 275.03 266.78
  Z
  M 295.14 245.72
  L 295.20 243.37
  Q 295.23 242.50 294.36 242.50
  L 287.58 242.50
  Q 286.66 242.50 286.66 243.42
  L 286.65 268.70
  Q 286.65 269.00 286.95 269.00
  L 294.93 268.99
  Q 295.17 268.99 295.17 268.75
  Q 295.13 262.23 295.29 255.26
  Q 295.40 250.42 299.49 249.69
  C 304.40 248.81 305.24 252.70 305.24 256.70
  Q 305.23 262.82 305.22 268.53
  Q 305.22 269.00 305.70 269.00
  L 313.26 269.00
  Q 313.68 269.00 313.69 268.57
  Q 313.75 260.43 313.61 251.76
  C 313.45 242.36 303.24 239.35 296.71 244.82
  Q 296.34 245.13 296.14 245.56
  Q 295.98 245.88 295.72 246.05
  Q 295.12 246.43 295.14 245.72
  Z
  M 351.85 265.28
  A 4.13 4.13 0.0 0 0 347.72 261.15
  A 4.13 4.13 0.0 0 0 343.59 265.28
  A 4.13 4.13 0.0 0 0 347.72 269.41
  A 4.13 4.13 0.0 0 0 351.85 265.28
  Z"
/>
<path fill="#ffffff" d="
  M 326.19 251.24
  L 334.28 242.59
  A 0.30 0.30 0.0 0 1 334.50 242.50
  L 343.33 242.50
  A 0.30 0.30 0.0 0 1 343.54 243.01
  L 334.45 252.51
  A 0.30 0.30 0.0 0 0 334.41 252.88
  L 344.04 268.53
  A 0.30 0.30 0.0 0 1 343.78 268.99
  L 334.42 269.00
  A 0.30 0.30 0.0 0 1 334.15 268.85
  L 328.71 259.17
  A 0.30 0.30 0.0 0 0 328.24 259.10
  L 325.75 261.62
  A 0.30 0.30 0.0 0 0 325.66 261.83
  L 325.66 268.69
  A 0.30 0.30 0.0 0 1 325.36 268.99
  L 317.44 269.00
  A 0.30 0.30 0.0 0 1 317.14 268.70
  L 317.15 232.81
  A 0.30 0.30 0.0 0 1 317.45 232.51
  L 325.36 232.51
  A 0.30 0.30 0.0 0 1 325.66 232.81
  L 325.67 251.03
  A 0.30 0.30 0.0 0 0 326.19 251.24
  Z"
/>
<path fill="#000000" d="
  M 106.27 241.63
  L 96.67 241.63
  A 0.35 0.35 0.0 0 1 96.32 241.28
  L 96.32 234.87
  A 0.35 0.35 0.0 0 1 96.67 234.52
  L 125.39 234.52
  A 0.35 0.35 0.0 0 1 125.74 234.87
  L 125.74 241.28
  A 0.35 0.35 0.0 0 1 125.39 241.63
  L 115.73 241.64
  A 0.35 0.35 0.0 0 0 115.38 241.99
  L 115.37 268.65
  A 0.35 0.35 0.0 0 1 115.02 269.00
  L 106.97 269.00
  A 0.35 0.35 0.0 0 1 106.62 268.65
  L 106.62 241.98
  A 0.35 0.35 0.0 0 0 106.27 241.63
  Z"
/>
<path fill="#000000" d="
  M 194.21 246.68
  L 192.45 250.01
  Q 192.17 250.55 191.60 250.31
  C 188.62 249.04 186.22 247.85 182.88 248.01
  A 1.71 1.71 0.0 0 0 181.28 249.39
  Q 180.97 250.89 182.76 251.49
  Q 186.50 252.74 190.25 254.02
  C 195.89 255.97 196.69 263.57 192.03 267.05
  C 186.71 271.03 177.54 269.39 172.55 265.95
  Q 172.03 265.59 172.31 265.04
  L 174.48 260.72
  Q 174.77 260.14 175.29 260.52
  Q 179.86 263.79 185.48 263.40
  A 1.64 1.64 0.0 0 0 186.75 260.88
  Q 186.24 260.10 184.86 259.64
  Q 181.94 258.67 179.03 257.66
  C 170.22 254.61 172.25 243.94 180.75 242.47
  Q 187.87 241.24 194.08 244.68
  Q 194.55 244.94 194.67 244.41
  L 194.75 244.07
  Q 194.82 243.72 195.18 243.73
  L 197.81 243.75
  Q 198.37 243.75 198.37 243.19
  L 198.37 236.62
  A 0.27 0.27 0.0 0 1 198.64 236.35
  L 206.44 236.33
  A 0.37 0.36 0.0 0 1 206.81 236.69
  L 206.80 243.26
  Q 206.80 243.71 207.26 243.71
  L 213.48 243.71
  A 0.27 0.27 0.0 0 1 213.75 243.98
  L 213.74 249.01
  A 0.25 0.25 0.0 0 1 213.49 249.26
  L 207.27 249.27
  Q 206.84 249.27 206.83 249.69
  Q 206.74 254.56 206.85 259.34
  C 206.93 262.87 209.14 263.21 211.93 261.90
  Q 212.57 261.61 212.76 262.29
  L 214.07 266.96
  Q 214.25 267.61 213.64 267.91
  C 207.41 271.01 198.21 269.47 198.28 260.86
  Q 198.33 255.29 198.39 249.72
  Q 198.40 249.26 197.94 249.26
  L 195.23 249.27
  Q 194.68 249.27 194.70 248.73
  L 194.74 246.82
  A 0.28 0.28 0.0 0 0 194.21 246.68
  Z"
/>
<path fill="#000000" d="
  M 235.95 241.81
  A 0.32 0.32 0.0 0 1 236.27 241.49
  L 243.27 241.48
  A 5.26 5.03 -0.1 0 1 248.54 246.50
  L 248.54 247.40
  A 5.26 5.03 -0.1 0 1 243.29 252.44
  L 236.29 252.45
  A 0.32 0.32 0.0 0 1 235.97 252.13
  L 235.95 241.81
  Z"
/>
<path fill="#000000" d="
  M 161.79 265.33
  C 156.08 272.57 144.64 269.85 144.15 259.99
  Q 143.96 256.04 144.16 243.40
  Q 144.17 243.21 143.97 243.19
  L 143.71 243.17
  Q 143.65 243.17 143.65 243.23
  L 143.62 248.57
  Q 143.62 249.47 142.72 249.57
  C 136.97 250.21 135.17 252.12 135.16 258.10
  Q 135.14 263.58 135.17 268.76
  Q 135.17 268.99 134.94 268.99
  L 126.95 269.00
  Q 126.65 269.00 126.65 268.70
  L 126.66 243.55
  Q 126.66 242.50 127.70 242.50
  L 134.21 242.50
  Q 135.18 242.50 135.17 243.46
  L 135.14 245.99
  Q 135.13 246.91 135.67 246.17
  C 137.88 243.15 140.23 242.22 144.15 242.40
  Q 148.10 242.58 152.04 242.48
  A 0.54 0.54 0.0 0 1 152.59 243.01
  Q 152.64 250.17 152.61 257.24
  C 152.58 263.92 162.07 263.18 162.16 255.99
  Q 162.24 249.15 162.20 242.79
  A 0.30 0.29 0.0 0 1 162.50 242.50
  L 170.49 242.50
  A 0.24 0.24 0.0 0 1 170.73 242.74
  L 170.73 268.01
  Q 170.73 269.00 169.74 269.00
  L 162.96 269.00
  Q 162.18 269.00 162.19 268.21
  L 162.24 265.50
  Q 162.25 264.75 161.79 265.33
  Z"
/>
<path fill="#ffffff" d="
  M 274.58 266.58
  C 268.74 271.56 256.55 269.93 258.01 259.91
  C 259.17 252.03 268.36 252.96 274.44 253.07
  Q 274.96 253.07 274.95 252.55
  C 274.85 246.09 265.22 248.98 262.22 250.62
  Q 261.93 250.77 261.80 250.48
  L 259.62 245.45
  Q 259.53 245.24 259.74 245.13
  C 265.63 242.07 277.86 239.74 281.97 246.62
  Q 283.21 248.70 283.27 253.18
  Q 283.38 260.98 283.33 268.38
  Q 283.33 269.00 282.71 269.00
  L 275.75 269.00
  Q 275.01 269.00 275.01 268.25
  L 275.03 266.78
  Q 275.03 266.19 274.58 266.58
  Z
  M 265.83 260.92
  C 266.61 265.62 275.68 264.00 274.97 258.20
  Q 274.91 257.70 274.41 257.68
  C 272.18 257.58 265.13 256.75 265.83 260.92
  Z"
/>
<path fill="#ffffff" d="
  M 295.72 246.05
  Q 295.98 245.88 296.14 245.56
  Q 296.34 245.13 296.71 244.82
  C 303.24 239.35 313.45 242.36 313.61 251.76
  Q 313.75 260.43 313.69 268.57
  Q 313.68 269.00 313.26 269.00
  L 305.70 269.00
  Q 305.22 269.00 305.22 268.53
  Q 305.23 262.82 305.24 256.70
  C 305.24 252.70 304.40 248.81 299.49 249.69
  Q 295.40 250.42 295.29 255.26
  Q 295.13 262.23 295.17 268.75
  Q 295.17 268.99 294.93 268.99
  L 286.95 269.00
  Q 286.65 269.00 286.65 268.70
  L 286.66 243.42
  Q 286.66 242.50 287.58 242.50
  L 294.36 242.50
  Q 295.23 242.50 295.20 243.37
  L 295.14 245.72
  Q 295.12 246.43 295.72 246.05
  Z"
/>
<path fill="#000000" d="
  M 274.97 258.20
  C 275.68 264.00 266.61 265.62 265.83 260.92
  C 265.13 256.75 272.18 257.58 274.41 257.68
  Q 274.91 257.70 274.97 258.20
  Z"
/>
<circle fill="#ffffff" cx="347.72" cy="265.28" r="4.13"/>
</svg>
